<svg width="64" height="64" viewBox="0 0 64 64" fill="none" xmlns="http://www.w3.org/2000/svg" role="img" aria-labelledby="title desc">
  <title id="title">FlowMemo app icon</title>
  <desc id="desc">A square green app icon with a flowing memo mark.</desc>
  <defs>
    <linearGradient id="flowmemo-icon-bg" x1="8" y1="6" x2="58" y2="60" gradientUnits="userSpaceOnUse">
      <stop stop-color="#39D977"/>
      <stop offset="0.52" stop-color="#18B873"/>
      <stop offset="1" stop-color="#0E92B3"/>
    </linearGradient>
    <linearGradient id="flowmemo-icon-line" x1="20" y1="25" x2="47" y2="46" gradientUnits="userSpaceOnUse">
      <stop stop-color="#18B873"/>
      <stop offset="1" stop-color="#0E92B3"/>
    </linearGradient>
  </defs>
  <rect width="64" height="64" rx="16" fill="url(#flowmemo-icon-bg)"/>
  <path
    d="M20 12H40.5L52 23.5V46C52 50.4183 48.4183 54 44 54H20C15.5817 54 12 50.4183 12 46V20C12 15.5817 15.5817 12 20 12Z"
    fill="white"
    fill-opacity="0.96"
  />
  <path d="M40 13.5V23C40 24.1046 40.8954 25 42 25H50.5" stroke="#89F2D6" stroke-width="4" stroke-linecap="round" stroke-linejoin="round"/>
  <rect x="20" y="20" width="15" height="13" rx="3.5" fill="#E9FFF1" stroke="#19B86E" stroke-width="3"/>
  <rect x="35" y="37" width="15" height="12" rx="3.5" fill="#E8FBFF" stroke="#0E92B3" stroke-width="3"/>
  <path
    d="M35 28H40C43.3137 28 46 30.6863 46 34V37M35 43H27C23.6863 43 21 40.3137 21 37C21 33.6863 23.6863 31 27 31H29"
    stroke="url(#flowmemo-icon-line)"
    stroke-width="5"
    stroke-linecap="round"
    stroke-linejoin="round"
  />
  <circle cx="31.5" cy="35.5" r="4.25" fill="#22C76C"/>
  <path d="M25 25H31" stroke="#19B86E" stroke-width="3" stroke-linecap="round"/>
  <path d="M25 29H30" stroke="#19B86E" stroke-width="3" stroke-linecap="round"/>
  <path d="M40 43H45" stroke="#0E92B3" stroke-width="3" stroke-linecap="round"/>
</svg>
